<svg xmlns="http://www.w3.org/2000/svg" xmlns:xlink="http://www.w3.org/1999/xlink" version="1.1" width="256" height="256" viewBox="0 0 256 256" xml:space="preserve">

<defs>
</defs>
<g style="stroke: none; stroke-width: 0; stroke-dasharray: none; stroke-linecap: butt; stroke-linejoin: miter; stroke-miterlimit: 10; fill: none; fill-rule: nonzero; opacity: 1;" transform="translate(1.4065934065934016 1.4065934065934016) scale(2.81 2.81)" >
	<path d="M 70.202 90 H 19.798 c -4.052 0 -7.349 -3.297 -7.349 -7.35 V 41.827 c 0 -4.052 3.297 -7.349 7.349 -7.349 h 50.404 c 4.052 0 7.349 3.297 7.349 7.349 V 82.65 C 77.551 86.703 74.254 90 70.202 90 z M 19.798 36.478 c -2.95 0 -5.349 2.399 -5.349 5.349 V 82.65 c 0 2.95 2.399 5.35 5.349 5.35 h 50.404 c 2.949 0 5.349 -2.399 5.349 -5.35 V 41.827 c 0 -2.95 -2.399 -5.349 -5.349 -5.349 H 19.798 z" style="stroke: none; stroke-width: 1; stroke-dasharray: none; stroke-linecap: butt; stroke-linejoin: miter; stroke-miterlimit: 10; fill: rgb(0,0,0); fill-rule: nonzero; opacity: 1;" transform=" matrix(1 0 0 1 0 0) " stroke-linecap="round" />
	<path d="M 45 76.169 c -2.464 0 -4.469 -2.005 -4.469 -4.47 v -8.847 c -2.25 -1.725 -3.304 -4.576 -2.7 -7.416 c 0.586 -2.758 2.835 -4.999 5.596 -5.576 c 2.215 -0.465 4.475 0.075 6.199 1.477 c 1.724 1.401 2.713 3.479 2.713 5.698 c 0 2.295 -1.063 4.432 -2.87 5.817 v 8.847 C 49.469 74.164 47.464 76.169 45 76.169 z M 44.985 51.698 c -0.381 0 -0.766 0.039 -1.149 0.119 c -1.998 0.418 -3.625 2.04 -4.049 4.035 c -0.47 2.21 0.429 4.428 2.292 5.648 c 0.282 0.185 0.452 0.499 0.452 0.836 v 9.362 c 0 1.361 1.108 2.47 2.469 2.47 s 2.469 -1.108 2.469 -2.47 v -9.362 c 0 -0.337 0.17 -0.651 0.452 -0.837 c 1.514 -0.991 2.418 -2.661 2.418 -4.465 c 0 -1.615 -0.72 -3.126 -1.975 -4.146 C 47.406 52.11 46.217 51.698 44.985 51.698 z" style="stroke: none; stroke-width: 1; stroke-dasharray: none; stroke-linecap: butt; stroke-linejoin: miter; stroke-miterlimit: 10; fill: rgb(0,0,0); fill-rule: nonzero; opacity: 1;" transform=" matrix(1 0 0 1 0 0) " stroke-linecap="round" />
	<path d="M 66.473 36.478 c -0.553 0 -1 -0.448 -1 -1 V 20.707 C 65.473 10.392 57.081 2 46.766 2 h -3.532 c -10.315 0 -18.707 8.392 -18.707 18.707 v 14.771 c 0 0.552 -0.448 1 -1 1 s -1 -0.448 -1 -1 V 20.707 C 22.527 9.289 31.816 0 43.234 0 h 3.532 c 11.418 0 20.707 9.289 20.707 20.707 v 14.771 C 67.473 36.03 67.025 36.478 66.473 36.478 z" style="stroke: none; stroke-width: 1; stroke-dasharray: none; stroke-linecap: butt; stroke-linejoin: miter; stroke-miterlimit: 10; fill: rgb(0,0,0); fill-rule: nonzero; opacity: 1;" transform=" matrix(1 0 0 1 0 0) " stroke-linecap="round" />
	<path d="M 58.658 36.478 c -0.553 0 -1 -0.448 -1 -1 V 21.535 c 0 -6.462 -5.258 -11.72 -11.72 -11.72 c -7.497 0 -13.596 6.099 -13.596 13.596 v 12.067 c 0 0.552 -0.448 1 -1 1 s -1 -0.448 -1 -1 V 23.411 c 0 -8.6 6.996 -15.596 15.596 -15.596 c 7.565 0 13.72 6.155 13.72 13.72 v 13.943 C 59.658 36.03 59.211 36.478 58.658 36.478 z" style="stroke: none; stroke-width: 1; stroke-dasharray: none; stroke-linecap: butt; stroke-linejoin: miter; stroke-miterlimit: 10; fill: rgb(0,0,0); fill-rule: nonzero; opacity: 1;" transform=" matrix(1 0 0 1 0 0) " stroke-linecap="round" />
</g>
</svg>