<?xml version="1.0" encoding="UTF-8"?>
<svg width="289px" height="293px" viewBox="0 0 289 293" version="1.1" xmlns="http://www.w3.org/2000/svg">
    <title>face/concerned_fear</title>
    <g id="face" stroke="none" stroke-width="1" fill="none" fill-rule="evenodd">
        <path style=" stroke:none;fill-rule:evenodd;fill:rgb(0%,0%,0%);fill-opacity:1;" d="M 127.09375 64.90625 C 132.585938 64.816406 136.035156 67.425781 137.441406 72.726562 C 137.988281 77.246094 136.285156 80.632812 132.339844 82.882812 C 131.1875 83.480469 129.980469 83.925781 128.714844 84.21875 C 119.59375 88.425781 110.117188 91.605469 100.292969 93.757812 C 89.773438 95.964844 79.152344 96.726562 68.433594 96.046875 C 63.515625 95.648438 58.84375 94.378906 54.414062 92.230469 C 53.914062 91.726562 53.800781 91.140625 54.082031 90.464844 C 54.304688 90.144531 54.609375 89.9375 54.984375 89.84375 C 56.652344 89.398438 58.335938 89.046875 60.042969 88.796875 C 69.839844 87.957031 79.472656 86.207031 88.941406 83.550781 C 100 80.324219 110.269531 75.492188 119.75 69.054688 C 121.640625 66.679688 124.085938 65.296875 127.09375 64.90625 Z M 127.09375 64.90625 "/>
        <path style=" stroke:none;fill-rule:evenodd;fill:rgb(0%,0%,0%);fill-opacity:1;" d="M 178.503906 65.382812 C 178.859375 65.371094 179.210938 65.417969 179.550781 65.523438 C 181.621094 66.207031 183.589844 67.097656 185.464844 68.195312 C 192.785156 73.03125 200.734375 76.464844 209.308594 78.496094 C 214.09375 79.5625 218.929688 79.878906 223.808594 79.449219 C 226.453125 79.035156 229.089844 78.589844 231.722656 78.113281 C 233.652344 77.8125 235.59375 77.714844 237.542969 77.828125 C 240.703125 78.445312 242.976562 80.210938 244.363281 83.121094 C 245.324219 85.34375 245.417969 87.601562 244.648438 89.894531 C 243.984375 91.289062 243.015625 92.417969 241.738281 93.28125 C 238.011719 95.234375 234.039062 96.285156 229.816406 96.425781 C 223.957031 96.613281 218.203125 95.910156 212.554688 94.328125 C 204.269531 92.203125 196.671875 88.675781 189.757812 83.742188 C 186.5625 81.375 183.75 78.625 181.316406 75.492188 C 179.332031 72.828125 178.171875 69.839844 177.835938 66.527344 C 177.816406 65.988281 178.039062 65.609375 178.503906 65.382812 Z M 178.503906 65.382812 "/>
        <path style=" stroke:none;fill-rule:evenodd;fill:rgb(0%,0%,0%);fill-opacity:1;" d="M 97.527344 98.382812 C 104.136719 98.246094 109.890625 100.363281 114.789062 104.726562 C 117.847656 107.660156 119.867188 111.207031 120.847656 115.359375 C 122.824219 116.386719 124.003906 118.007812 124.375 120.222656 C 124.984375 123.691406 123.792969 126.347656 120.796875 128.1875 C 118.125 129.507812 115.359375 129.730469 112.5 128.855469 C 109.191406 128.058594 107.332031 125.976562 106.921875 122.609375 C 106.910156 121.078125 106.976562 119.550781 107.109375 118.03125 C 106.855469 116.71875 106.3125 115.542969 105.488281 114.5 C 101.722656 110.4375 97.414062 109.785156 92.566406 112.546875 C 86.898438 116.359375 84.070312 121.714844 84.078125 128.617188 C 83.984375 130.636719 84.445312 132.511719 85.460938 134.242188 C 85.847656 134.695312 86.292969 135.078125 86.796875 135.386719 C 87.03125 135.964844 86.839844 136.3125 86.222656 136.4375 C 78.640625 135.183594 74.777344 130.714844 74.632812 123.039062 C 75.089844 114.460938 78.746094 107.625 85.601562 102.53125 C 89.183594 100.007812 93.160156 98.625 97.527344 98.382812 Z M 97.527344 98.382812 "/>
        <path style=" stroke:none;fill-rule:evenodd;fill:rgb(0%,0%,0%);fill-opacity:1;" d="M 209.40625 98.953125 C 215.871094 99.121094 221.164062 101.664062 225.285156 106.585938 C 229.28125 111.863281 229.914062 117.519531 227.195312 123.5625 C 225.3125 126.558594 222.628906 127.71875 219.132812 127.042969 C 215.6875 126.046875 213.699219 123.773438 213.171875 120.222656 C 213.203125 118.699219 213.238281 117.171875 213.269531 115.644531 C 212.539062 112.820312 210.710938 111.566406 207.785156 111.878906 C 205.457031 112.222656 203.5 113.257812 201.917969 114.976562 C 198.523438 118.90625 197.1875 123.449219 197.914062 128.617188 C 198.152344 129.621094 198.484375 130.589844 198.914062 131.527344 C 198.796875 132.109375 198.449219 132.332031 197.863281 132.195312 C 195.6875 129.28125 193.859375 126.148438 192.378906 122.796875 C 190.398438 116.46875 191.511719 110.746094 195.71875 105.628906 C 199.324219 101.453125 203.886719 99.226562 209.40625 98.953125 Z M 209.40625 98.953125 "/>
        <path style=" stroke:none;fill-rule:evenodd;fill:rgb(0%,0%,0%);fill-opacity:1;" d="M 172.875 138.820312 C 179.570312 139.269531 185.148438 141.96875 189.613281 146.929688 C 193.667969 152.074219 195.351562 157.921875 194.667969 164.480469 C 193.863281 171.773438 190.570312 177.636719 184.796875 182.074219 C 179.773438 185.445312 174.242188 186.78125 168.203125 186.082031 C 163.660156 185.542969 159.335938 184.269531 155.230469 182.265625 C 151.542969 180.457031 148.046875 178.359375 144.738281 175.972656 C 142.015625 174.039062 141.207031 171.476562 142.304688 168.292969 C 143.25 165.824219 144.980469 164.21875 147.503906 163.476562 C 148.765625 163.234375 149.972656 163.394531 151.128906 163.953125 C 154.101562 166.257812 157.152344 168.453125 160.285156 170.535156 C 162.785156 172.132812 165.457031 173.375 168.296875 174.253906 C 173.53125 175.84375 178.03125 174.683594 181.792969 170.773438 C 185.042969 165.929688 185.265625 160.9375 182.460938 155.800781 C 180.691406 152.855469 178.480469 150.261719 175.832031 148.027344 C 174.152344 146.613281 172.371094 145.34375 170.492188 144.210938 C 169.488281 142.371094 169.804688 140.78125 171.445312 139.441406 C 171.910156 139.179688 172.386719 138.972656 172.875 138.820312 Z M 172.875 138.820312 "/>
        <path style=" stroke:none;fill-rule:evenodd;fill:rgb(0%,0%,0%);fill-opacity:1;" d="M 161.90625 207.875 C 164.832031 207.859375 167.757812 207.875 170.683594 207.921875 C 176.957031 208.007812 182.839844 209.5625 188.328125 212.597656 C 193.058594 215.105469 197.476562 218.0625 201.585938 221.46875 C 203.835938 223.460938 205.726562 225.734375 207.257812 228.285156 C 210.171875 233.722656 210.460938 239.285156 208.117188 244.976562 C 206.035156 249.15625 202.746094 251.875 198.246094 253.132812 C 193.308594 253.925781 188.347656 254.558594 183.367188 255.039062 C 166.984375 256.691406 150.578125 258.089844 134.152344 259.234375 C 130.039062 259.53125 126 259.117188 122.039062 257.996094 C 117.171875 256.339844 113.660156 253.179688 111.5 248.507812 C 110.304688 245.460938 110.082031 242.347656 110.832031 239.160156 C 111.734375 235.828125 113.195312 232.777344 115.21875 230.003906 C 124.082031 218.40625 135.765625 211.425781 150.269531 209.066406 C 154.140625 208.449219 158.019531 208.050781 161.90625 207.875 Z M 161.90625 207.875 "/>
        <path style=" stroke:none;fill-rule:evenodd;fill:rgb(100%,100%,100%);fill-opacity:1;" d="M 161.90625 217.222656 C 168.765625 217.027344 175.28125 218.410156 181.460938 221.371094 C 182.257812 221.820312 182.972656 222.375 183.605469 223.039062 C 184.179688 223.855469 184.003906 224.445312 183.082031 224.804688 C 179.835938 225.75 176.53125 226.382812 173.160156 226.710938 C 163.402344 227.910156 153.609375 228.355469 143.785156 228.046875 C 142.882812 227.949219 141.992188 227.792969 141.113281 227.570312 C 140.40625 227.375 140.199219 226.945312 140.492188 226.285156 C 140.882812 225.703125 141.34375 225.179688 141.878906 224.710938 C 144.476562 222.871094 147.273438 221.375 150.269531 220.226562 C 154.042969 218.761719 157.921875 217.761719 161.90625 217.222656 Z M 161.90625 217.222656 "/>
    </g>
</svg>